<svg xmlns="http://www.w3.org/2000/svg" width="48" height="48" viewBox="0 0 48 48">
    <g fill="none" fill-rule="evenodd">
        <g>
            <g>
                <g>
                    <path d="M0 0H48V48H0z" opacity=".5" transform="translate(-204 -28) translate(0 24) translate(204 4)"/>
                    <g>
                        <path d="M0 0H48V48H0z" transform="translate(-204 -28) translate(0 24) translate(204 4)"/>
                        <path d="M12 12H36V36H12z" transform="translate(-204 -28) translate(0 24) translate(204 4)"/>
                        <path fill="#000" d="M24.48 14.218l9.546 9.546c.293.293.293.768 0 1.06-.293.293-.767.293-1.06 0l-9.05-9.049-9.05 9.05c-.293.292-.768.292-1.06 0-.293-.293-.293-.768 0-1.061l9.545-9.546c.134-.133.304-.206.478-.218h.173c.174.012.345.085.478.218z" transform="translate(-204 -28) translate(0 24) translate(204 4)"/>
                        <path fill="#000" d="M17.25 33.5c-.414 0-.75-.336-.75-.75v-11c0-.414.336-.75.75-.75s.75.336.75.75V32h12V21.75c0-.414.336-.75.75-.75s.75.336.75.75v11c0 .38-.282.693-.648.743l-.102.007h-13.5z" transform="translate(-204 -28) translate(0 24) translate(204 4)"/>
                    </g>
                </g>
            </g>
        </g>
    </g>
</svg>